<?xml version="1.0" encoding="UTF-8"?>
<svg width="217px" height="41px" viewBox="0 0 217 41" version="1.1" xmlns="http://www.w3.org/2000/svg" xmlns:xlink="http://www.w3.org/1999/xlink">
    <!-- Generator: Sketch 43.2 (39069) - http://www.bohemiancoding.com/sketch -->
    <title>Group</title>
    <desc>Created with Sketch.</desc>
    <defs>
        <linearGradient x1="93.7433811%" y1="-12.5920139%" x2="12.9819543%" y2="122.166987%" id="linearGradient-1">
            <stop stop-color="#BBE165" offset="0%"></stop>
            <stop stop-color="#11D792" offset="100%"></stop>
        </linearGradient>
    </defs>
    <g id="Branding" stroke="none" stroke-width="1" fill="none" fill-rule="evenodd">
        <g id="White---Full-logo" transform="translate(-68.000000, -83.000000)">
            <g id="Group" transform="translate(68.000000, 83.000000)">
                <path d="M49.4759385,13.4049836 L47.8016985,13.4049836 C47.0719015,13.4049836 46.5138215,13.9641967 46.5138215,14.6954754 C46.5138215,15.4267541 47.0719015,15.9859672 47.8016985,15.9859672 L49.4759385,15.9859672 L49.4759385,27.8584918 C49.4759385,30.9986885 51.3218954,33.2785574 54.7133046,33.2785574 C55.4431015,33.2785574 56.0441108,32.7193443 56.0441108,31.9880656 C56.0441108,31.2567869 55.4431015,30.6975738 54.7133046,30.6975738 C53.2537108,30.6975738 52.2234092,29.7081967 52.2234092,27.8584918 L52.2234092,15.9859672 L55.0138092,15.9859672 C55.7436062,15.9859672 56.3016862,15.4267541 56.3016862,14.6954754 C56.3016862,13.9641967 55.7436062,13.4049836 55.0138092,13.4049836 L52.2234092,13.4049836 L52.2234092,8.8882623 C52.2234092,8.15698361 51.6224,7.5117377 50.8496738,7.5117377 C50.1198769,7.5117377 49.4759385,8.15698361 49.4759385,8.8882623 L49.4759385,13.4049836 Z M67.1010708,12.8027541 C61.5632,12.8027541 58.0859323,16.072 58.0859323,23.1266885 C58.0859323,30.181377 61.5632,33.4936393 67.1010708,33.4936393 C72.6818708,33.4936393 76.1162092,30.181377 76.1162092,23.1266885 C76.1162092,16.072 72.6818708,12.8027541 67.1010708,12.8027541 L67.1010708,12.8027541 Z M67.1010708,30.9986885 C63.1515815,30.9986885 60.8763323,28.6327869 60.8763323,23.1266885 C60.8763323,17.706623 63.1515815,15.2977049 67.1010708,15.2977049 C71.05056,15.2977049 73.3258092,17.706623 73.3258092,23.1266885 C73.3258092,28.6327869 71.05056,30.9986885 67.1010708,30.9986885 L67.1010708,30.9986885 Z M80.3474215,13.0608525 C79.5746954,13.0608525 78.9736862,13.663082 78.9736862,14.437377 L78.9736862,25.6646557 C78.9736862,29.7512131 80.3474215,33.4936393 86.9585231,33.4936393 C93.6125538,33.4936393 94.94336,29.7512131 94.94336,25.6646557 L94.94336,14.437377 C94.94336,13.663082 94.3423508,13.0608525 93.6125538,13.0608525 C92.8398277,13.0608525 92.1958892,13.663082 92.1958892,14.437377 L92.1958892,25.6646557 C92.1958892,28.4607213 91.2943754,30.8696393 86.9585231,30.8696393 C82.6226708,30.8696393 81.7211569,28.4607213 81.7211569,25.6646557 L81.7211569,14.437377 C81.7211569,13.663082 81.0772185,13.0608525 80.3474215,13.0608525 L80.3474215,13.0608525 Z M97.8008369,23.1266885 C97.8008369,30.181377 101.106388,33.4936393 106.644258,33.4936393 C110.121526,33.4936393 112.182129,31.9450492 113.126572,31.1707541 C113.555865,30.7836066 113.684652,30.4824918 113.684652,30.0953443 C113.684652,29.407082 113.126572,28.8478689 112.439705,28.8478689 C112.1392,28.8478689 111.924554,28.9339016 111.624049,29.1489836 C110.636677,29.8802623 109.134154,30.9986885 106.644258,30.9986885 C102.694769,30.9986885 100.591237,28.5037377 100.591237,23.1266885 C100.591237,17.8356721 102.694769,15.2977049 106.644258,15.2977049 C109.477588,15.2977049 110.636677,16.5881967 111.280615,17.3194754 C111.58112,17.6636066 111.881625,17.8356721 112.310917,17.8356721 C112.997785,17.8356721 113.555865,17.3194754 113.555865,16.5881967 C113.555865,16.287082 113.470006,16.072 113.25536,15.7708852 C112.568492,14.8245246 110.46496,12.8027541 106.644258,12.8027541 C101.106388,12.8027541 97.8008369,16.072 97.8008369,23.1266885 L97.8008369,23.1266885 Z M125.645809,12.8027541 C122.855409,12.8027541 120.751877,14.1792787 119.936222,15.8139016 L119.936222,3.68327869 C119.936222,2.90898361 119.335212,2.3067541 118.562486,2.3067541 C117.78976,2.3067541 117.188751,2.90898361 117.188751,3.68327869 L117.188751,31.9020328 C117.188751,32.6763279 117.78976,33.2785574 118.562486,33.2785574 C119.335212,33.2785574 119.936222,32.6763279 119.936222,31.9020328 L119.936222,21.2769836 C119.936222,17.8356721 121.395815,15.2546885 125.645809,15.2546885 C129.809945,15.2546885 130.797317,17.5775738 130.797317,20.9758689 L130.797317,31.9020328 C130.797317,32.6763279 131.398326,33.2785574 132.171052,33.2785574 C132.943778,33.2785574 133.544788,32.6763279 133.544788,31.9020328 L133.544788,20.4166557 C133.544788,16.7602623 132.256911,12.8027541 125.645809,12.8027541 L125.645809,12.8027541 Z" id="touch" fill="#4B5248"></path>
                <path d="M141.698658,17.276459 L141.698658,31.0417049 C141.698658,32.3321967 142.643102,33.2785574 144.016837,33.2785574 C145.304714,33.2785574 146.335015,32.3321967 146.335015,31.0417049 L146.335015,17.276459 L149.211274,17.276459 C150.284505,17.276459 151.143089,16.4161311 151.143089,15.3407213 C151.143089,14.2653115 150.284505,13.4049836 149.211274,13.4049836 L146.335015,13.4049836 L146.335015,10.7379672 C146.335015,8.8452459 147.537034,7.5117377 149.898142,7.5117377 C151.014302,7.5117377 151.915815,6.60839344 151.915815,5.48996721 C151.915815,4.37154098 151.014302,3.46819672 149.898142,3.46819672 C144.360271,3.46819672 141.698658,7.08157377 141.698658,11.0820984 L141.698658,13.4049836 L140.797145,13.4049836 C139.723914,13.4049836 138.865329,14.2653115 138.865329,15.3407213 C138.865329,16.4161311 139.723914,17.276459 140.797145,17.276459 L141.698658,17.276459 Z M160.410437,16.9323279 C162.900332,16.9323279 164.316997,18.2228197 164.316997,20.1585574 L164.316997,20.9328525 L158.693268,20.9328525 C154.958425,20.9328525 151.738732,22.9976393 151.738732,26.9981639 C151.738732,30.8696393 154.529132,33.4936393 158.736197,33.4936393 C161.311951,33.4936393 163.200837,32.8483934 164.359926,30.9986885 C164.359926,32.2461639 165.390228,33.2785574 166.635175,33.2785574 C167.880123,33.2785574 168.910425,32.2461639 168.910425,30.9986885 L168.910425,19.9864918 C168.910425,15.4267541 165.733662,12.8027541 160.410437,12.8027541 C156.718523,12.8027541 154.572062,14.2222951 153.370043,15.5558033 C152.98368,15.9859672 152.811963,16.5021639 152.811963,16.9753443 C152.811963,18.0937705 153.713477,18.9971148 154.829637,18.9971148 C155.344788,18.9971148 155.688222,18.8680656 156.117514,18.5669508 C157.190745,17.7926557 158.521551,16.9323279 160.410437,16.9323279 L160.410437,16.9323279 Z M159.938215,29.6221639 C157.534178,29.6221639 156.375089,28.6327869 156.375089,26.9981639 C156.375089,25.4495738 157.405391,24.5462295 159.294277,24.5462295 L164.316997,24.5462295 L164.316997,25.7506885 C164.316997,28.1596066 162.213465,29.6221639 159.938215,29.6221639 L159.938215,29.6221639 Z M177.692135,15.3837377 C177.692135,14.0932459 176.661834,13.0608525 175.373957,13.0608525 C174.08608,13.0608525 173.055778,14.0932459 173.055778,15.3837377 L173.055778,30.9556721 C173.055778,32.2461639 174.08608,33.2785574 175.373957,33.2785574 C176.661834,33.2785574 177.692135,32.2461639 177.692135,30.9556721 L177.692135,22.0082623 C177.692135,19.1261639 179.366375,17.2334426 182.328492,17.2334426 C183.530511,17.2334426 184.517883,16.2440656 184.517883,15.0396066 C184.517883,13.8351475 183.530511,12.8457705 182.328492,12.8457705 C180.525465,12.8457705 178.507791,13.9211803 177.692135,15.5988197 L177.692135,15.3837377 Z M208.5824,12.8027541 C205.663212,12.8027541 203.817255,13.7491148 202.44352,15.5988197 C201.370289,13.9211803 199.610191,12.8027541 196.089994,12.8027541 C193.213735,12.8027541 191.410708,14.1362623 190.595052,15.3837377 C190.595052,14.0932459 189.564751,13.0608525 188.276874,13.0608525 C186.988997,13.0608525 185.958695,14.0932459 185.958695,15.3837377 L185.958695,31.0417049 C185.958695,32.3321967 186.946068,33.2785574 188.276874,33.2785574 C189.60768,33.2785574 190.595052,32.3321967 190.595052,31.0417049 L190.595052,21.4490492 C190.595052,18.911082 191.668283,17.0183607 194.887975,17.0183607 C197.678375,17.0183607 198.665748,18.696 198.665748,21.1479344 L198.665748,31.0417049 C198.665748,32.3321967 199.610191,33.2785574 200.983926,33.2785574 C202.271803,33.2785574 203.302105,32.3321967 203.302105,31.0417049 L203.302105,21.104918 C203.302105,18.696 204.504123,17.0183607 207.595028,17.0183607 C210.385428,17.0183607 211.3728,18.696 211.3728,21.1479344 L211.3728,31.0417049 C211.3728,32.3321967 212.317243,33.2785574 213.690978,33.2785574 C214.978855,33.2785574 216.009157,32.3321967 216.009157,31.0417049 L216.009157,20.2876066 C216.009157,16.5451803 214.420775,12.8027541 208.5824,12.8027541 L208.5824,12.8027541 Z" id="farm" fill="#4B5248"></path>
                <path d="M2.51855339,20.3297235 C1.90014567,20.3297235 1.39273421,19.8292262 1.39273421,19.2095629 C1.39273421,8.61967565 8.73434376,0 17.7567538,0 C26.7791638,0 34.1207733,8.61967565 34.112845,19.2095629 C34.112845,19.8292262 33.6133618,20.3297235 32.9949541,20.3297235 C32.3765464,20.3297235 31.8770633,19.8292262 31.8770633,19.2095629 C31.8770633,9.85105788 25.5423483,2.24032123 17.7567538,2.24032123 C9.97115919,2.24032123 3.63644426,9.85105788 3.63644426,19.2095629 C3.63644426,19.8292262 3.1369611,20.3297235 2.51855339,20.3297235 Z M26.2241825,19.2095629 C26.2241825,19.7815598 26.1766127,20.3297235 26.1131862,20.8699428 C26.2241825,26.4707459 28.6819567,30.2205034 32.5668257,30.9275551 C33.1693768,31.0387767 33.5737203,31.618718 33.4627241,32.230437 C33.3120863,32.9374887 32.6619654,33.2234871 32.1624822,33.1281543 C27.881198,32.3416586 25.53442,29.1797868 24.5195971,25.5730285 C23.0132193,28.0278486 20.6426564,29.5849513 17.9153198,29.5849513 L17.8201802,29.5849513 C17.7408972,29.5770069 9.9870158,29.0288431 5.4837391,34.446925 C5.0873239,34.9156447 4.39756145,34.9871443 3.9060066,34.5899242 C3.43030835,34.1927041 3.36688192,33.4856524 3.76329712,33.0089883 C8.86912493,26.8679659 17.138346,27.2890192 17.9470331,27.34463 C21.2848491,27.3128524 23.9884007,23.6743165 23.9884007,19.2095629 C23.9884007,14.7289204 21.1897094,11.0744957 17.7567538,11.0744957 C14.3237981,11.0744957 11.5251068,14.720976 11.5251068,19.2095629 C11.5251068,19.8292262 11.0256236,20.3297235 10.4072159,20.3297235 C9.7888082,20.3297235 9.28932504,19.8292262 9.28932504,19.2095629 C9.28932504,13.4895938 13.0869827,8.82623009 17.7567538,8.82623009 C22.4265248,8.82623009 26.2241825,13.4895938 26.2241825,19.2095629 Z M33.1138787,26.5581343 C33.7243581,26.6137451 34.1762714,27.1698532 34.1207733,27.7974609 C34.033562,28.472735 33.4468675,28.8620107 32.8918862,28.7984555 C27.5878508,28.2661806 27.8970546,19.9007258 27.9366962,19.1936741 C27.9208395,12.2899891 23.3620647,6.67329727 17.7567538,6.67329727 C12.1435145,6.67329727 7.57681137,12.305878 7.57681137,19.2254517 C7.2438226,22.101325 4.87325969,24.4846455 1.48787386,25.6604169 C0.901179364,25.8590269 0.26691504,25.5571397 0.0607791352,24.969254 C-0.137428466,24.3813683 0.163847088,23.7458161 0.750541587,23.5392617 C4.8891163,22.0933806 5.30931641,19.4478949 5.34102963,19.1698409 C5.36481454,11.0347737 10.9225557,4.42503165 17.7567538,4.42503165 C24.5988802,4.42503165 30.1724779,11.0586069 30.1724779,19.2175073 L30.1724779,19.2810625 C30.1724779,19.3446177 29.8712023,26.2324138 33.1138787,26.5581343 Z M17.9311764,25.167864 C17.8360368,25.1599196 7.30724903,24.8024215 2.62954965,31.3724416 C2.20142123,31.9444385 1.48787386,31.9444385 1.06767375,31.6346068 C0.568190594,31.2771088 0.449266033,30.570057 0.806039715,30.0695597 C5.96736565,22.8163212 16.9480667,22.9037096 17.9628897,22.9275428 C18.9459994,22.8560432 20.032177,21.3307181 20.032177,19.2095629 C20.032177,17.0804633 18.8270748,15.491583 17.7488255,15.491583 C16.6705761,15.491583 15.4654739,17.0804633 15.4654739,19.2095629 C15.4654739,19.8292262 14.9659907,20.3297235 14.347583,20.3297235 C13.7291753,20.3297235 13.2296922,19.8292262 13.2296922,19.2095629 C13.2296922,15.9205806 15.259338,13.2433173 17.7567538,13.2433173 C20.2541695,13.2433173 22.2838154,15.9205806 22.2838154,19.2095629 C22.2838154,22.6653775 20.3334526,25.1043088 17.9311764,25.167864 Z M24.5513103,31.7061065 C23.6712686,32.468769 22.0697512,33.4300416 19.4534108,33.636596 C13.7133187,34.0814825 9.42410621,35.0824771 7.15661125,38.5144586 C6.72848284,39.1261775 5.99907886,39.1102887 5.60266366,38.8322346 C5.0873239,38.4906254 4.94461443,37.791518 5.2855315,37.2751319 C8.05250961,33.0884323 12.8808468,31.8967721 19.2789881,31.3962748 C21.2927774,31.2373868 22.4582381,30.5541682 23.0845741,30.0139489 C23.552344,29.6087845 24.2579631,29.6564509 24.6623066,30.1251706 C25.0666501,30.5938902 25.0190803,31.300942 24.5513103,31.7061065 Z M32.1941954,35.5273636 C32.8046748,35.6226964 33.224875,36.1946933 33.1297353,36.7984678 C33.0108107,37.4499088 32.4716861,37.8232956 31.8612067,37.7438516 C28.1824736,37.1956879 25.169718,34.685257 25.0428652,34.5819798 C24.5750952,34.1847597 24.5116688,33.477708 24.908084,33.0010439 C25.3044992,32.5323242 26.0101183,32.468769 26.4858165,32.8659891 C26.525458,32.8977667 29.157655,35.0745327 32.1941954,35.5273636 Z M19.2552032,35.5194192 C23.4492761,35.5194192 27.0407978,36.7190238 28.3965378,38.5780138 C28.7612398,39.0785111 28.6502435,39.7776184 28.1507604,40.1430609 C27.5482093,40.5561697 26.8980883,40.3178377 26.5888845,39.8967844 C25.8119107,38.8322346 23.0449326,37.7597404 19.2552032,37.7597404 C15.4654739,37.7597404 12.6905675,38.8322346 11.921522,39.8967844 C11.55682,40.3972817 10.8591292,40.5085033 10.3596461,40.1430609 C9.86016293,39.7776184 9.74916668,39.0785111 10.1138687,38.5780138 C11.4696087,36.7190238 15.0532021,35.5194192 19.2552032,35.5194192 Z" id="Logo-Copy-5" fill="url(#linearGradient-1)"></path>
            </g>
        </g>
    </g>
</svg>