<?xml version="1.0" encoding="UTF-8"?>
<svg width="163px" height="31px" viewBox="0 0 163 31" version="1.1" xmlns="http://www.w3.org/2000/svg" xmlns:xlink="http://www.w3.org/1999/xlink">
    <!-- Generator: Sketch 40.1 (33804) - http://www.bohemiancoding.com/sketch -->
    <title>Logo</title>
    <desc>Created with Sketch.</desc>
    <defs></defs>
    <g id="Website" stroke="none" stroke-width="1" fill="none" fill-rule="evenodd">
        <g id="Desktop-HD" transform="translate(-93.000000, -14.000000)" fill="#FFFFFF">
            <g id="Logo" transform="translate(93.000000, 14.000000)">
                <path d="M37.1639538,10.1354754 L35.9063449,10.1354754 C35.3581565,10.1354754 34.9389535,10.5582951 34.9389535,11.1112131 C34.9389535,11.6641311 35.3581565,12.0869508 35.9063449,12.0869508 L37.1639538,12.0869508 L37.1639538,21.0637377 C37.1639538,23.4380328 38.5505481,25.1618361 41.0980122,25.1618361 C41.6462007,25.1618361 42.09765,24.7390164 42.09765,24.1860984 C42.09765,23.6331803 41.6462007,23.2103607 41.0980122,23.2103607 C40.0016353,23.2103607 39.2277221,22.4622951 39.2277221,21.0637377 L39.2277221,12.0869508 L41.3237369,12.0869508 C41.8719254,12.0869508 42.2911283,11.6641311 42.2911283,11.1112131 C42.2911283,10.5582951 41.8719254,10.1354754 41.3237369,10.1354754 L39.2277221,10.1354754 L39.2277221,6.72039344 C39.2277221,6.16747541 38.7762728,5.67960656 38.195838,5.67960656 C37.6476495,5.67960656 37.1639538,6.16747541 37.1639538,6.72039344 L37.1639538,10.1354754 Z M50.4031085,9.68013115 C46.2433253,9.68013115 43.6313685,12.152 43.6313685,17.4860328 C43.6313685,22.8200656 46.2433253,25.324459 50.4031085,25.324459 C54.595138,25.324459 57.1748484,22.8200656 57.1748484,17.4860328 C57.1748484,12.152 54.595138,9.68013115 50.4031085,9.68013115 L50.4031085,9.68013115 Z M50.4031085,23.4380328 C47.4364414,23.4380328 45.7273833,21.6491803 45.7273833,17.4860328 C45.7273833,13.3879344 47.4364414,11.5665574 50.4031085,11.5665574 C53.3697755,11.5665574 55.0788337,13.3879344 55.0788337,17.4860328 C55.0788337,21.6491803 53.3697755,23.4380328 50.4031085,23.4380328 L50.4031085,23.4380328 Z M60.3531323,9.87527869 C59.7726975,9.87527869 59.3212481,10.330623 59.3212481,10.9160656 L59.3212481,19.4049836 C59.3212481,22.4948197 60.3531323,25.324459 65.3190749,25.324459 C70.3172639,25.324459 71.3169018,22.4948197 71.3169018,19.4049836 L71.3169018,10.9160656 C71.3169018,10.330623 70.8654524,9.87527869 70.3172639,9.87527869 C69.7368291,9.87527869 69.2531334,10.330623 69.2531334,10.9160656 L69.2531334,19.4049836 C69.2531334,21.519082 68.5759594,23.340459 65.3190749,23.340459 C62.0621905,23.340459 61.3850165,21.519082 61.3850165,19.4049836 L61.3850165,10.9160656 C61.3850165,10.330623 60.9013208,9.87527869 60.3531323,9.87527869 L60.3531323,9.87527869 Z M73.4633015,17.4860328 C73.4633015,22.8200656 75.9462728,25.324459 80.1060559,25.324459 C82.7180127,25.324459 84.265839,24.1535738 84.9752594,23.5681311 C85.2977232,23.2754098 85.3944623,23.0477377 85.3944623,22.7550164 C85.3944623,22.234623 84.9752594,21.8118033 84.4593173,21.8118033 C84.2335926,21.8118033 84.0723607,21.8768525 83.8466361,22.0394754 C83.1049693,22.5923934 81.976346,23.4380328 80.1060559,23.4380328 C77.1393889,23.4380328 75.5593162,21.5516066 75.5593162,17.4860328 C75.5593162,13.4855082 77.1393889,11.5665574 80.1060559,11.5665574 C82.234317,11.5665574 83.1049693,12.5422951 83.588665,13.0952131 C83.8143897,13.3554098 84.0401143,13.4855082 84.3625781,13.4855082 C84.8785202,13.4855082 85.2977232,13.0952131 85.2977232,12.5422951 C85.2977232,12.314623 85.2332304,12.152 85.0719985,11.9243279 C84.5560564,11.2087869 82.9759838,9.68013115 80.1060559,9.68013115 C75.9462728,9.68013115 73.4633015,12.152 73.4633015,17.4860328 L73.4633015,17.4860328 Z M94.3791102,9.68013115 C92.2830954,9.68013115 90.7030228,10.720918 90.0903415,11.9568525 L90.0903415,2.78491803 C90.0903415,2.19947541 89.6388922,1.74413115 89.0584573,1.74413115 C88.4780225,1.74413115 88.0265732,2.19947541 88.0265732,2.78491803 L88.0265732,24.1210492 C88.0265732,24.7064918 88.4780225,25.1618361 89.0584573,25.1618361 C89.6388922,25.1618361 90.0903415,24.7064918 90.0903415,24.1210492 L90.0903415,16.0874754 C90.0903415,13.4855082 91.1867185,11.5340328 94.3791102,11.5340328 C97.5070091,11.5340328 98.2486758,13.2903607 98.2486758,15.8598033 L98.2486758,24.1210492 C98.2486758,24.7064918 98.7001252,25.1618361 99.28056,25.1618361 C99.8609949,25.1618361 100.312444,24.7064918 100.312444,24.1210492 L100.312444,15.4369836 C100.312444,12.6723934 99.3450528,9.68013115 94.3791102,9.68013115 L94.3791102,9.68013115 Z" id="touch"></path>
                <path d="M106.437241,13.0626885 L106.437241,23.4705574 C106.437241,24.4462951 107.146662,25.1618361 108.178546,25.1618361 C109.145937,25.1618361 109.91985,24.4462951 109.91985,23.4705574 L109.91985,13.0626885 L112.080358,13.0626885 C112.886517,13.0626885 113.531445,12.4121967 113.531445,11.599082 C113.531445,10.7859672 112.886517,10.1354754 112.080358,10.1354754 L109.91985,10.1354754 L109.91985,8.11895082 C109.91985,6.68786885 110.822749,5.67960656 112.5963,5.67960656 C113.434706,5.67960656 114.11188,4.99659016 114.11188,4.15095082 C114.11188,3.30531148 113.434706,2.62229508 112.5963,2.62229508 C108.436517,2.62229508 106.437241,5.35436066 106.437241,8.37914754 L106.437241,10.1354754 L105.760067,10.1354754 C104.953908,10.1354754 104.30898,10.7859672 104.30898,11.599082 C104.30898,12.4121967 104.953908,13.0626885 105.760067,13.0626885 L106.437241,13.0626885 Z M120.492632,12.8024918 C122.362922,12.8024918 123.427053,13.7782295 123.427053,15.2418361 L123.427053,15.8272787 L119.202777,15.8272787 C116.397342,15.8272787 113.978863,17.388459 113.978863,20.4132459 C113.978863,23.340459 116.074878,25.324459 119.235023,25.324459 C121.169806,25.324459 122.588647,24.8365902 123.459299,23.4380328 C123.459299,24.3812459 124.233213,25.1618361 125.168358,25.1618361 C126.103503,25.1618361 126.877416,24.3812459 126.877416,23.4380328 L126.877416,15.1117377 C126.877416,11.6641311 124.491184,9.68013115 120.492632,9.68013115 C117.719444,9.68013115 116.107125,10.7534426 115.204226,11.7617049 C114.914008,12.0869508 114.785023,12.4772459 114.785023,12.8350164 C114.785023,13.6806557 115.462197,14.3636721 116.300603,14.3636721 C116.687559,14.3636721 116.94553,14.2660984 117.267994,14.0384262 C118.074154,13.4529836 119.073792,12.8024918 120.492632,12.8024918 L120.492632,12.8024918 Z M120.137922,22.3972459 C118.332125,22.3972459 117.461473,21.6491803 117.461473,20.4132459 C117.461473,19.2423607 118.235386,18.5593443 119.654226,18.5593443 L123.427053,18.5593443 L123.427053,19.4700328 C123.427053,21.2914098 121.84698,22.3972459 120.137922,22.3972459 L120.137922,22.3972459 Z M133.473816,11.6316066 C133.473816,10.6558689 132.699903,9.87527869 131.732511,9.87527869 C130.76512,9.87527869 129.991207,10.6558689 129.991207,11.6316066 L129.991207,23.4055082 C129.991207,24.3812459 130.76512,25.1618361 131.732511,25.1618361 C132.699903,25.1618361 133.473816,24.3812459 133.473816,23.4055082 L133.473816,16.6403934 C133.473816,14.4612459 134.731425,13.0301639 136.956425,13.0301639 C137.859324,13.0301639 138.600991,12.2820984 138.600991,11.3714098 C138.600991,10.4607213 137.859324,9.71265574 136.956425,9.71265574 C135.602077,9.71265574 134.086497,10.5257705 133.473816,11.7942295 L133.473816,11.6316066 Z M156.677102,9.68013115 C154.484348,9.68013115 153.097754,10.3956721 152.06587,11.7942295 C151.25971,10.5257705 149.937609,9.68013115 147.293406,9.68013115 C145.132898,9.68013115 143.77855,10.6883934 143.165869,11.6316066 C143.165869,10.6558689 142.391956,9.87527869 141.424564,9.87527869 C140.457173,9.87527869 139.68326,10.6558689 139.68326,11.6316066 L139.68326,23.4705574 C139.68326,24.4462951 140.424926,25.1618361 141.424564,25.1618361 C142.424202,25.1618361 143.165869,24.4462951 143.165869,23.4705574 L143.165869,16.2175738 C143.165869,14.298623 143.972028,12.867541 146.390507,12.867541 C148.486522,12.867541 149.228188,14.136 149.228188,15.9899016 L149.228188,23.4705574 C149.228188,24.4462951 149.937609,25.1618361 150.969493,25.1618361 C151.936884,25.1618361 152.710797,24.4462951 152.710797,23.4705574 L152.710797,15.957377 C152.710797,14.136 153.613696,12.867541 155.935436,12.867541 C158.03145,12.867541 158.773117,14.136 158.773117,15.9899016 L158.773117,23.4705574 C158.773117,24.4462951 159.482537,25.1618361 160.514422,25.1618361 C161.481813,25.1618361 162.255726,24.4462951 162.255726,23.4705574 L162.255726,15.3394098 C162.255726,12.5097705 161.06261,9.68013115 156.677102,9.68013115 L156.677102,9.68013115 Z" id="farm"></path>
                <path d="M1.8918166,15.3712543 C2.35633484,15.3712543 2.73152265,14.9928296 2.73152265,14.5243036 C2.73152265,7.44836084 7.4898569,1.69390142 13.3380224,1.69390142 C19.1861879,1.69390142 23.9445222,7.44836084 23.9445222,14.5243036 C23.9445222,14.9928296 24.31971,15.3712543 24.7842282,15.3712543 C25.2487465,15.3712543 25.6239343,14.9928296 25.6239343,14.5243036 C25.6298896,6.51731573 20.1152244,0 13.3380224,0 C6.56082043,0 1.04615519,6.51731573 1.04615519,14.5243036 C1.04615519,14.9928296 1.42729836,15.3712543 1.8918166,15.3712543 Z M19.6983491,14.5243036 C19.6983491,10.199449 16.8457306,6.67349104 13.3380224,6.67349104 C9.83031418,6.67349104 6.97769577,10.199449 6.97769577,14.5243036 C6.97769577,14.9928296 7.35288358,15.3712543 7.81740181,15.3712543 C8.28192005,15.3712543 8.65710786,14.9928296 8.65710786,14.5243036 C8.65710786,11.1304941 10.7593507,8.3733992 13.3380224,8.3733992 C15.9166942,8.3733992 18.018937,11.1365008 18.018937,14.5243036 C18.018937,17.900093 15.9881585,20.6511811 13.4809511,20.6752081 C12.8735042,20.6331609 6.66206158,20.3148035 2.82680844,24.9580155 C2.52904034,25.3184201 2.57668323,25.8530202 2.93400495,26.1533573 C3.3032374,26.4536945 3.8213539,26.3996338 4.119122,26.045236 C7.50176763,21.9486375 13.3261117,22.3631027 13.3856653,22.3691095 L13.4571297,22.3691095 C15.5057742,22.3691095 17.2864274,21.1917879 18.4179462,19.3357045 C19.1802326,22.0627656 20.9430197,24.4534492 24.1589152,25.0481167 C24.534103,25.1201976 25.0224427,24.9039549 25.1355946,24.3693548 C25.2189696,23.9068356 24.9152462,23.4683434 24.4626387,23.384249 C21.5445113,22.8496489 19.6983491,20.0144664 19.614974,15.7797128 C19.6626169,15.3712543 19.6983491,14.9567891 19.6983491,14.5243036 Z M24.8735586,20.0805405 C22.4378156,19.8342641 22.6641193,14.6264183 22.6641193,14.5783643 L22.6641193,14.5303104 C22.6641193,8.36138571 18.4774998,3.34575563 13.3380224,3.34575563 C8.20450035,3.34575563 4.02979157,8.34336549 4.01192548,14.4942699 C3.98810403,14.7045059 3.67246985,16.7047512 0.563770869,17.7979784 C0.12307408,17.9541537 -0.103229677,18.4346931 0.0456543734,18.879192 C0.200493786,19.323691 0.676922748,19.5519472 1.11761954,19.4017786 C3.66055912,18.5127807 5.44121237,16.7107579 5.69133757,14.5363171 C5.69133757,9.3044443 9.1216261,5.04566379 13.3380224,5.04566379 C17.5484634,5.04566379 20.9727965,9.29243082 20.9847072,14.5122901 C20.9549304,15.0468902 20.7226713,21.3719902 24.7068085,21.774442 C25.1236839,21.8224959 25.5643806,21.5281655 25.6298896,21.0175924 C25.6715772,20.5430597 25.3321215,20.1225877 24.8735586,20.0805405 Z M13.4690404,19.0293606 C15.2735151,18.9813067 16.7385341,17.1372367 16.7385341,14.5243036 C16.7385341,12.0375122 15.2139614,10.0132399 13.3380224,10.0132399 C11.4620834,10.0132399 9.93751069,12.0375122 9.93751069,14.5243036 C9.93751069,14.9928296 10.3126985,15.3712543 10.7772167,15.3712543 C11.241735,15.3712543 11.6169228,14.9928296 11.6169228,14.5243036 C11.6169228,12.9144966 12.5221378,11.7131481 13.332067,11.7131481 C14.1419963,11.7131481 15.0472113,12.9144966 15.0472113,14.5243036 C15.0472113,16.1281039 14.2313267,17.2813985 13.4928618,17.3354592 C12.7305755,17.3174389 4.48239908,17.2513648 0.605458404,22.7355208 C0.337467113,23.1139456 0.426797543,23.6485457 0.80198535,23.9188491 C1.11761954,24.153112 1.65360212,24.153112 1.97519167,23.7206266 C5.48885526,18.7530504 13.397576,19.0233538 13.4690404,19.0293606 Z M18.4417677,23.9729098 C18.793134,23.6665659 18.8288662,23.1319658 18.5251427,22.777568 C18.2214193,22.4231702 17.691392,22.3871297 17.3400257,22.6934736 C16.8695521,23.1019321 15.9941139,23.6185119 14.4814519,23.7386468 C9.67547477,24.1170716 6.04865929,25.018083 3.97023795,28.1836363 C3.71415738,28.5740746 3.8213539,29.102668 4.20845243,29.3609579 C4.50622053,29.5711939 5.05411384,29.5832074 5.37570338,29.1206882 C7.07893692,26.5257754 10.3007878,25.7689258 14.6124699,25.4325482 C16.5777394,25.2763729 17.7807225,24.5495571 18.4417677,23.9729098 Z M24.1827367,26.862153 C21.901833,26.5197686 19.9246528,24.8739212 19.894876,24.8498942 C19.5375543,24.5495571 19.0075271,24.597611 18.709759,24.9520088 C18.4119909,25.3124134 18.4596338,25.8470135 18.8110001,26.1473506 C18.9062859,26.2254382 21.1693235,28.1235689 23.9326115,28.5380341 C24.3911743,28.5981016 24.7961389,28.3157847 24.8854694,27.8232318 C24.9569337,27.3667193 24.6412995,26.9342339 24.1827367,26.862153 Z M14.4635858,26.8561462 C11.307244,26.8561462 8.61542033,27.7631643 7.59705342,29.1687421 C7.32310677,29.5471669 7.40648183,30.0757603 7.78166964,30.3520704 C8.15685745,30.6283806 8.68092931,30.5442862 8.95487596,30.1658614 C9.53254608,29.3609579 11.6169228,28.5500476 14.4635858,28.5500476 C17.3102489,28.5500476 19.3886702,29.3609579 19.9722957,30.1658614 C20.2045548,30.4842188 20.6928945,30.664421 21.145502,30.3520704 C21.5206898,30.0757603 21.6040649,29.5471669 21.3301182,29.1687421 C20.3117513,27.7631643 17.6139723,26.8561462 14.4635858,26.8561462 Z" id="Logo-Copy-5"></path>
            </g>
        </g>
    </g>
</svg>