<?xml version="1.0" encoding="UTF-8"?>
<svg width="33px" height="40px" viewBox="0 0 33 40" version="1.1" xmlns="http://www.w3.org/2000/svg" xmlns:xlink="http://www.w3.org/1999/xlink">
    <!-- Generator: Sketch 40.1 (33804) - http://www.bohemiancoding.com/sketch -->
    <title>Logo</title>
    <desc>Created with Sketch.</desc>
    <defs>
        <linearGradient x1="93.7433811%" y1="-12.5920139%" x2="12.9819543%" y2="122.166987%" id="linearGradient-1">
            <stop stop-color="#BBE165" offset="0%"></stop>
            <stop stop-color="#11D792" offset="100%"></stop>
        </linearGradient>
    </defs>
    <g id="Dashboard" stroke="none" stroke-width="1" fill="none" fill-rule="evenodd">
        <g id="Desktop-HD-Copy" transform="translate(-249.000000, -44.000000)" fill="url(#linearGradient-1)">
            <path d="M251.435497,64.590378 C252.033511,64.590378 252.516522,64.1073668 252.516522,63.5093529 C252.516522,54.4778095 258.642331,47.132972 266.171173,47.132972 C273.700015,47.132972 279.825824,54.4778095 279.825824,63.5093529 C279.825824,64.1073668 280.308835,64.590378 280.906849,64.590378 C281.504863,64.590378 281.987874,64.1073668 281.987874,63.5093529 C281.995541,53.2894485 274.896042,44.9709217 266.171173,44.9709217 C257.446303,44.9709217 250.346805,53.2894485 250.346805,63.5093529 C250.346805,64.1073668 250.837483,64.590378 251.435497,64.590378 Z M274.359363,63.5093529 C274.359363,57.9892245 270.686944,53.4887865 266.171173,53.4887865 C261.655401,53.4887865 257.982982,57.9892245 257.982982,63.5093529 C257.982982,64.1073668 258.465994,64.590378 259.064007,64.590378 C259.662021,64.590378 260.145033,64.1073668 260.145033,63.5093529 C260.145033,59.1775854 262.851429,55.6585036 266.171173,55.6585036 C269.490917,55.6585036 272.197313,59.1852523 272.197313,63.5093529 C272.197313,67.8181197 269.582919,71.3295347 266.355177,71.3602021 C265.573159,71.3065342 257.57664,70.9001914 252.639191,76.8266626 C252.255849,77.2866733 252.317184,77.9690225 252.777195,78.3523647 C253.252539,78.735707 253.919554,78.6667054 254.302897,78.2143615 C258.657665,72.9855732 266.155839,73.5145855 266.232508,73.5222524 L266.32451,73.5222524 C268.961904,73.5222524 271.254291,72.0195508 272.710992,69.6504957 C273.692348,73.1312433 275.961734,76.1826476 280.10183,76.9416652 C280.584841,77.0336674 281.213523,76.757661 281.359193,76.0753118 C281.466528,75.4849647 281.075519,74.925285 280.492839,74.8179492 C276.736085,74.1356 274.359363,70.5168492 274.252027,65.1117235 C274.313362,64.590378 274.359363,64.0613657 274.359363,63.5093529 Z M281.021851,70.6011845 C277.886112,70.2868438 278.177452,63.6396892 278.177452,63.5783545 L278.177452,63.5170197 C278.177452,55.6431699 272.78766,49.2413544 266.171173,49.2413544 C259.562352,49.2413544 254.187894,55.6201694 254.164894,63.4710186 C254.134226,63.7393582 253.727883,66.2924176 249.72579,67.6877834 C249.158444,67.8871213 248.867104,68.5004689 249.058775,69.0678155 C249.258113,69.635162 249.87146,69.9265021 250.438807,69.734831 C253.71255,68.6001379 256.004936,66.3000844 256.326944,63.5246865 C256.326944,56.8468646 260.743047,51.4110715 266.171173,51.4110715 C271.591632,51.4110715 276.000068,56.8315309 276.015402,63.4940192 C275.977067,64.1763684 275.678061,72.2495561 280.80718,72.7632347 C281.343859,72.8245695 281.911205,72.4488941 281.995541,71.7972123 C282.049209,71.1915315 281.612199,70.6548524 281.021851,70.6011845 Z M266.339843,69.2594866 C268.662897,69.1981518 270.548941,66.8444304 270.548941,63.5093529 C270.548941,60.335279 268.586229,57.7515523 266.171173,57.7515523 C263.756117,57.7515523 261.793404,60.335279 261.793404,63.5093529 C261.793404,64.1073668 262.276415,64.590378 262.874429,64.590378 C263.472443,64.590378 263.955455,64.1073668 263.955455,63.5093529 C263.955455,61.4546384 265.120815,59.9212694 266.163506,59.9212694 C267.206197,59.9212694 268.371557,61.4546384 268.371557,63.5093529 C268.371557,65.5564005 267.321199,67.0284347 266.370511,67.0974363 C265.389155,67.0744358 254.770574,66.9901005 249.779458,73.9899299 C249.43445,74.4729412 249.549453,75.1552904 250.032464,75.5002984 C250.438807,75.7993053 251.128823,75.7993053 251.542833,75.2472925 C256.066271,68.9068117 266.247841,69.2518197 266.339843,69.2594866 Z M272.741659,75.5693 C273.194003,75.1782909 273.240004,74.4959417 272.848995,74.0435978 C272.457986,73.591254 271.775636,73.5452529 271.323293,73.936262 C270.717612,74.4576075 269.590586,75.1169561 267.643207,75.270293 C261.456063,75.7533043 256.786954,76.903331 254.111226,80.9437583 C253.781551,81.4421032 253.919554,82.1167856 254.417899,82.4464599 C254.801242,82.7147995 255.506591,82.7301332 255.920601,82.1397861 C258.113319,78.8277091 262.261082,77.8616866 267.811878,77.4323433 C270.341936,77.2330054 271.890639,76.3053171 272.741659,75.5693 Z M280.132497,79.2570524 C277.196096,78.8200423 274.650703,76.7193267 274.612369,76.6886594 C274.152358,76.3053171 273.470009,76.3666519 273.086667,76.8189957 C272.703325,77.2790064 272.764659,77.9613556 273.217003,78.3446979 C273.339673,78.4443669 276.253074,80.8670899 279.81049,81.3961022 C280.400837,81.4727706 280.922182,81.1124289 281.037185,80.4837476 C281.129187,79.9010674 280.722844,79.3490546 280.132497,79.2570524 Z M267.620206,79.2493856 C263.556779,79.2493856 260.091365,80.4070792 258.780334,82.2011209 C258.427659,82.6841321 258.534995,83.3588145 259.018006,83.7114894 C259.501018,84.0641642 260.1757,83.9568284 260.528375,83.4738172 C261.272059,82.4464599 263.955455,81.4114359 267.620206,81.4114359 C271.284958,81.4114359 273.960687,82.4464599 274.712038,83.4738172 C275.011045,83.8801599 275.639726,84.1101653 276.222406,83.7114894 C276.705418,83.3588145 276.812754,82.6841321 276.460079,82.2011209 C275.149048,80.4070792 271.675967,79.2493856 267.620206,79.2493856 Z" id="Logo"></path>
        </g>
    </g>
</svg>